<svg version="1.2" baseProfile="tiny-ps" xmlns="http://www.w3.org/2000/svg" viewBox="0 0 3600 2304" width="300" height="192">
	<title>Shanta_Logo-ai</title>
	<style>
		tspan { white-space:pre }
		.s0 { fill: #9b9534 } 
		.s1 { fill: #303337 } 
		.s2 { fill: #7a9d9d } 
		.s3 { fill: #393e3e } 
	</style>
	<g id="Layer 1">
		<g id="&lt;Group&gt;">
			<g id="&lt;Group&gt;">
				<path id="&lt;Path&gt;" class="s0" d="m943.92 1104.1c-6.27-135.4 137.46-141.87 168.71-45.14c49.96 406.24-406.16 502.95-531.13 315.96c74.99 96.73 468.6 38.7 362.42-270.82z" />
				<path id="&lt;Path&gt;" class="s0" d="m581.49 1374.92c-174.94-141.85-49.99-606.11 337.42-528.74c93.7 38.67 75 186.98-49.99 167.65c-293.66-122.51-374.88 277.27-287.43 361.08z" />
				<path id="&lt;Path&gt;" class="s1" d="m1518.78 1213.02c0 25.07-8.91 45.22-26.74 60.46c-17.03 14.22-38.38 21.31-63.96 21.31h-201.94v-46.12h201.94c12.67 0 23.65-2.86 32.95-8.53c10.59-6.98 15.87-16.43 15.87-28.3c0-11.9-5.4-21.07-16.28-27.52c-9.04-5.42-19.87-8.13-32.54-8.13h-124.81c-23 0-42.26-6.33-57.76-19.02c-16.54-13.67-24.8-31.77-24.8-54.24c0-22.25 8.26-40.19 24.8-53.88c15.5-12.66 34.76-18.99 57.76-18.99h199.61v46.13h-199.61c-8.81 0-16.28 2.44-22.5 7.38c-6.2 4.9-9.32 11.46-9.32 19.72c0 8.54 3.12 15.15 9.32 19.82c6.22 4.61 13.69 6.96 22.5 6.96h124.81c25.58 0 46.93 7.36 63.96 22.09c17.83 15.5 26.74 35.8 26.74 60.87z" />
				<path id="&lt;Compound Path&gt;" class="s1" d="m1828.48 1294.79h-46.1v-110.1h-155.44v-46.12h155.44v-108.54h46.1v264.76zm-222.48 0h-46.14v-264.76h46.14v264.76z" />
				<path id="&lt;Path&gt;" class="s1" d="m2214.93 1294.79l-59.33-0.38l-44.56-74.03h-125.59l27.88-45.78h70.19l-46.15-76.34l-119.38 196.15h-59.26l143.77-239.16c3.61-6.21 8.67-11.88 15.12-17.06c7.74-5.95 14.72-8.91 20.93-8.91c6.69 0 13.69 2.83 20.93 8.53c6.19 4.87 11.25 10.72 15.12 17.44l140.33 239.54z" />
				<path id="&lt;Path&gt;" class="s1" d="m2501.39 1271.91c0 17.06-5.82 25.59-17.48 25.59c-8.53 0-18.07-5.3-28.65-15.88l-169.79-170.56v183.73h-45.74v-241.89c0-6.2 1.68-11.54 5.03-16.07c3.34-4.52 8.13-6.78 14.36-6.78c8.5 0 17.31 4.51 26.35 13.55l169.79 170.19v-183.73h46.13v241.86z" />
				<path id="&lt;Path&gt;" class="s1" d="m2802.55 1076.18h-104.28v218.63h-45.72v-218.63h-104.66v-46.14h254.66v46.14z" />
				<path id="&lt;Path&gt;" class="s1" d="m3096 1294.79l-59.33-0.38l-44.55-74.03h-125.63l27.92-45.78h70.19l-46.15-76.34l-119.39 196.15h-59.3l143.81-239.16c3.61-6.21 8.64-11.88 15.13-17.06c7.74-5.95 14.69-8.91 20.93-8.91c6.69 0 13.69 2.83 20.93 8.53c6.19 4.87 11.23 10.72 15.11 17.44l140.33 239.54z" />
				<text id="" style="transform: matrix(1,0,0,1,2739.76,1029.282)" >
				</text>
				<text id="Text layer 19" style="transform: matrix(1,0,0,1,2661,1032)" >
				</text>
			</g>
		</g>
		<text id="" style="transform: matrix(1,0,0,1,1448.41,1570.02)" >
		</text>
		<text id="" style="transform: matrix(1,0,0,1,3852,1350)" >
		</text>
		<path id="&lt;Path&gt;" class="s2" d="" />
		<path id="&lt;Path&gt;" class="s3" d="" />
	</g>
</svg>