<?xml version="1.0" encoding="UTF-8" standalone="no"?>
<!-- Created with Inkscape (http://www.inkscape.org/) -->

<svg
   version="1.1"
   id="svg2"
   xml:space="preserve"
   width="649.70667"
   height="264"
   viewBox="0 0 649.70667 264"
   sodipodi:docname="SEL Official Logo.ai"
   xmlns:inkscape="http://www.inkscape.org/namespaces/inkscape"
   xmlns:sodipodi="http://sodipodi.sourceforge.net/DTD/sodipodi-0.dtd"
   xmlns="http://www.w3.org/2000/svg"
   xmlns:svg="http://www.w3.org/2000/svg"><defs
     id="defs6"><clipPath
       clipPathUnits="userSpaceOnUse"
       id="clipPath16"><path
         d="M 0,198 H 487.28 V 0 H 0 Z"
         id="path14" /></clipPath></defs><sodipodi:namedview
     id="namedview4"
     pagecolor="#ffffff"
     bordercolor="#666666"
     borderopacity="1.0"
     inkscape:pageshadow="2"
     inkscape:pageopacity="0.0"
     inkscape:pagecheckerboard="0" /><g
     id="g8"
     inkscape:groupmode="layer"
     inkscape:label="SEL Official Logo"
     transform="matrix(1.3333333,0,0,-1.3333333,0,264)"><g
       id="g10"><g
         id="g12"
         clip-path="url(#clipPath16)"><g
           id="g18"
           transform="translate(143.3447,107.8813)"><path
             d="m 0,0 c -0.72,15.596 15.832,16.339 19.432,5.198 5.756,-46.79 -46.78,-57.93 -61.174,-36.392 C -33.105,-42.332 12.233,-35.651 0,0"
             style="fill:#9c9434;fill-opacity:1;fill-rule:evenodd;stroke:none"
             id="path20" /></g><g
           id="g22"
           transform="translate(134.709,118.2778)"><path
             d="M 0,0 C 14.393,-2.229 16.552,14.855 5.758,19.311 -38.863,28.222 -53.257,-25.25 -33.106,-41.588 -43.181,-31.935 -33.825,14.111 0,0"
             style="fill:#9c9434;fill-opacity:1;fill-rule:evenodd;stroke:none"
             id="path24" /></g><g
           id="g26"
           transform="translate(212.9385,95.3394)"><path
             d="m 0,0 c 0,-2.888 -1.024,-5.212 -3.081,-6.966 -1.964,-1.638 -4.42,-2.455 -7.365,-2.455 h -23.261 v 5.313 h 23.261 c 1.457,0 2.723,0.326 3.794,0.982 1.219,0.803 1.83,1.889 1.83,3.26 0,1.366 -0.624,2.426 -1.874,3.169 -1.042,0.626 -2.293,0.936 -3.75,0.936 h -14.378 c -2.65,0 -4.867,0.731 -6.652,2.188 -1.904,1.579 -2.858,3.662 -2.858,6.249 0,2.561 0.954,4.629 2.858,6.208 1.785,1.459 4.002,2.187 6.652,2.187 H -1.83 v -5.312 h -22.994 c -1.013,0 -1.876,-0.284 -2.589,-0.85 -0.713,-0.563 -1.07,-1.323 -1.07,-2.275 0,-0.984 0.357,-1.741 1.07,-2.278 0.713,-0.534 1.576,-0.802 2.589,-0.802 h 14.378 c 2.945,0 5.401,-0.848 7.365,-2.546 C -1.024,5.223 0,2.885 0,0"
             style="fill:#424143;fill-opacity:1;fill-rule:nonzero;stroke:none"
             id="path28" /></g><g
           id="g30"
           transform="translate(248.6094,85.916)"><path
             d="m 0,0 h -5.312 v 12.679 h -17.903 v 5.315 H -5.312 V 30.495 H 0 Z m -25.624,0 h -5.315 v 30.495 h 5.315 z"
             style="fill:#424143;fill-opacity:1;fill-rule:nonzero;stroke:none"
             id="path32" /></g><g
           id="g34"
           transform="translate(293.1211,85.916)"><path
             d="m 0,0 -6.831,0.045 -5.134,8.529 h -14.466 l 3.216,5.267 h 8.08 L -20.448,22.637 -34.2,0.045 h -6.831 l 16.563,27.547 c 0.418,0.714 1.001,1.369 1.742,1.964 0.894,0.687 1.699,1.027 2.413,1.027 0.77,0 1.576,-0.327 2.411,-0.981 0.715,-0.566 1.294,-1.235 1.739,-2.01 z"
             style="fill:#424143;fill-opacity:1;fill-rule:nonzero;stroke:none"
             id="path36" /></g><g
           id="g38"
           transform="translate(326.1172,88.5518)"><path
             d="m 0,0 c 0,-1.966 -0.673,-2.946 -2.012,-2.946 -0.982,0 -2.084,0.607 -3.304,1.829 L -24.871,18.527 V -2.636 h -5.267 v 27.861 c 0,0.714 0.192,1.333 0.578,1.852 0.386,0.523 0.939,0.781 1.653,0.781 0.983,0 1.994,-0.52 3.036,-1.561 L -5.316,6.698 v 21.16 H 0 Z"
             style="fill:#424143;fill-opacity:1;fill-rule:nonzero;stroke:none"
             id="path40" /></g><g
           id="g42"
           transform="translate(360.8037,111.0981)"><path
             d="m 0,0 h -12.01 v -25.18 h -5.267 V 0 H -29.332 V 5.312 H 0 Z"
             style="fill:#424143;fill-opacity:1;fill-rule:nonzero;stroke:none"
             id="path44" /></g><g
           id="g46"
           transform="translate(394.6035,85.916)"><path
             d="m 0,0 -6.831,0.045 -5.137,8.529 h -14.466 l 3.215,5.267 h 8.08 L -20.452,22.637 -34.2,0.045 h -6.831 l 16.563,27.547 c 0.418,0.714 0.997,1.369 1.739,1.964 0.894,0.687 1.698,1.027 2.412,1.027 0.776,0 1.58,-0.327 2.412,-0.981 0.714,-0.566 1.294,-1.235 1.742,-2.01 z"
             style="fill:#424143;fill-opacity:1;fill-rule:nonzero;stroke:none"
             id="path48" /></g></g></g><g
       aria-label="EQUITY"
       transform="matrix(1,0,0,-1,279.1582,64.9688)"
       id="text52"
       style="font-size:18.31px;font-family:Verdana;-inkscape-font-specification:Verdana;fill:#424143"><path
         d="M 10.558647,0 H 1.7880859 v -13.312299 h 8.7705611 v 1.573515 H 3.5582909 v 3.6476954 h 7.0003561 v 1.5735155 H 3.5582909 v 4.9440575 h 7.0003561 z"
         id="path54" /><path
         d="m 34.387895,3.2632567 q -0.536425,0.1341065 -1.063911,0.1877491 -0.518545,0.062583 -1.063911,0.062583 -1.555635,0 -2.50332,-0.8582813 -0.938745,-0.8493408 -1.019209,-2.44073719 -0.21457,0.0357617 -0.4202,0.0447021 -0.19669,0.0178809 -0.384439,0.0178809 -1.403647,0 -2.556963,-0.46490233 -1.144374,-0.46490233 -1.949013,-1.35000488 -0.804639,-0.8851025 -1.24272,-2.1725243 -0.42914,-1.2874218 -0.42914,-2.9414013 0,-1.6271581 0.42914,-2.91458 0.429141,-1.2963625 1.25166,-2.2172265 0.786758,-0.876162 1.949014,-1.341064 1.171196,-0.464903 2.548022,-0.464903 1.430469,0 2.565904,0.473843 1.144375,0.464902 1.940073,1.332124 0.813579,0.894043 1.242719,2.1904052 0.438081,1.2963623 0.438081,2.9414013 0,2.4407372 -1.001328,4.1125975 -0.992387,1.67186035 -2.673188,2.34239255 0.03576,1.01920896 0.482783,1.58245605 0.447022,0.563247 1.627158,0.563247 0.366558,0 0.867222,-0.1162256 0.509604,-0.1072851 0.724175,-0.1966894 h 0.241391 z m -2.109941,-9.9149362 q 0,-2.5927245 -1.162256,-3.9963715 -1.162256,-1.412588 -3.173852,-1.412588 -2.029478,0 -3.191734,1.412588 -1.153315,1.403647 -1.153315,3.9963715 0,2.6195458 1.180137,4.0142528 1.180136,1.3857666 3.164912,1.3857666 1.984775,0 3.155971,-1.3857666 1.180137,-1.394707 1.180137,-4.0142528 z"
         id="path56" /><path
         d="m 56.102196,-5.3463768 q 0,1.4483496 -0.321855,2.5301415 -0.312915,1.0728516 -1.03709,1.7880859 -0.688413,0.67947265 -1.609277,0.99238768 -0.920864,0.31291503 -2.145703,0.31291503 -1.25166,0 -2.181465,-0.33079589 -0.929805,-0.33079589 -1.564575,-0.97450682 -0.724175,-0.7331152 -1.04603,-1.770205 -0.312915,-1.0370898 -0.312915,-2.5480224 v -7.9659222 h 1.770205 v 8.0553265 q 0,1.081792 0.143047,1.707622 0.151987,0.6258301 0.500664,1.1354346 0.393378,0.5811279 1.063911,0.876162 0.679472,0.2950342 1.627158,0.2950342 0.956626,0 1.627158,-0.2860937 0.670532,-0.2950342 1.072852,-0.8851025 0.348676,-0.5096045 0.491723,-1.1622559 0.151987,-0.6615917 0.151987,-1.6360986 v -8.1000286 h 1.770205 z"
         id="path58" /><path
         d="M 73.313309,0 H 68.056336 V -1.3589453 H 69.79972 V -11.953354 h -1.743384 v -1.358945 h 5.256973 v 1.358945 h -1.743384 v 10.5944087 h 1.743384 z"
         id="path60" /><path
         d="M 94.959519,-11.738784 H 90.20321 V 0 h -1.770205 v -11.738784 h -4.756308 v -1.573515 h 11.282822 z"
         id="path62" /><path
         d="m 115.32196,-13.312299 -4.68479,7.4741986 V 0 h -1.7702 v -5.6503514 l -4.70267,-7.6619476 h 1.95795 l 3.63876,5.9543256 3.67451,-5.9543256 z"
         id="path64" /></g></g></svg>
